<svg xmlns="http://www.w3.org/2000/svg" xmlns:xlink="http://www.w3.org/1999/xlink" xmlns:lucid="lucid" width="760" height="600"><g transform="translate(-220 -140)" lucid:page-tab-id="0_0"><path d="M240 566c0-3.3 2.7-6 6-6h68c3.3 0 6 2.7 6 6v68c0 3.3-2.7 6-6 6h-68c-3.3 0-6-2.7-6-6z" fill="none"/><use xlink:href="#a" transform="matrix(1,0,0,1,240,560) translate(26.62109375 47.693142361111114)"/><path d="M320 400h400v80H320z" stroke="#5e5e5e" stroke-width="3" fill="#c1e4f7"/><use xlink:href="#b" transform="matrix(1,0,0,1,332,412) translate(69.91999999999999 28)"/><use xlink:href="#c" transform="matrix(1,0,0,1,332,412) translate(96.15999999999998 28)"/><use xlink:href="#d" transform="matrix(1,0,0,1,332,412) translate(122.39999999999998 28)"/><use xlink:href="#e" transform="matrix(1,0,0,1,332,412) translate(148.64 28)"/><use xlink:href="#f" transform="matrix(1,0,0,1,332,412) translate(174.88 28)"/><use xlink:href="#g" transform="matrix(1,0,0,1,332,412) translate(201.11999999999998 28)"/><use xlink:href="#h" transform="matrix(1,0,0,1,332,412) translate(227.35999999999999 28)"/><use xlink:href="#i" transform="matrix(1,0,0,1,332,412) translate(253.6 28)"/><use xlink:href="#j" transform="matrix(1,0,0,1,332,412) translate(279.84000000000003 28)"/><use xlink:href="#k" transform="matrix(1,0,0,1,332,412) translate(104.52128472222225 55.25333333333333)"/><use xlink:href="#l" transform="matrix(1,0,0,1,332,412) translate(132.71774305555556 55.25333333333333)"/><use xlink:href="#m" transform="matrix(1,0,0,1,332,412) translate(150.2110763888889 55.25333333333333)"/><use xlink:href="#n" transform="matrix(1,0,0,1,332,412) translate(167.70440972222224 55.25333333333333)"/><use xlink:href="#o" transform="matrix(1,0,0,1,332,412) translate(189.76663194444444 55.25333333333333)"/><path d="M320 480h400v80H320z" stroke="#5e5e5e" stroke-width="3" fill="#f9d2de"/><use xlink:href="#p" transform="matrix(1,0,0,1,332,492) translate(43.67999999999998 28)"/><use xlink:href="#q" transform="matrix(1,0,0,1,332,492) translate(69.91999999999997 28)"/><use xlink:href="#r" transform="matrix(1,0,0,1,332,492) translate(96.15999999999997 28)"/><use xlink:href="#s" transform="matrix(1,0,0,1,332,492) translate(122.39999999999998 28)"/><use xlink:href="#t" transform="matrix(1,0,0,1,332,492) translate(148.64 28)"/><use xlink:href="#u" transform="matrix(1,0,0,1,332,492) translate(174.87999999999997 28)"/><use xlink:href="#f" transform="matrix(1,0,0,1,332,492) translate(201.11999999999998 28)"/><use xlink:href="#g" transform="matrix(1,0,0,1,332,492) translate(227.35999999999999 28)"/><use xlink:href="#v" transform="matrix(1,0,0,1,332,492) translate(253.6 28)"/><use xlink:href="#w" transform="matrix(1,0,0,1,332,492) translate(279.84000000000003 28)"/><use xlink:href="#j" transform="matrix(1,0,0,1,332,492) translate(306.08000000000004 28)"/><use xlink:href="#x" transform="matrix(1,0,0,1,332,492) translate(83.04000000000003 55.25333333333333)"/><use xlink:href="#y" transform="matrix(1,0,0,1,332,492) translate(100.53333333333336 55.25333333333333)"/><use xlink:href="#z" transform="matrix(1,0,0,1,332,492) translate(118.02666666666669 55.25333333333333)"/><use xlink:href="#A" transform="matrix(1,0,0,1,332,492) translate(135.52 55.25333333333333)"/><use xlink:href="#B" transform="matrix(1,0,0,1,332,492) translate(153.01333333333332 55.25333333333333)"/><use xlink:href="#y" transform="matrix(1,0,0,1,332,492) translate(170.50666666666666 55.25333333333333)"/><use xlink:href="#C" transform="matrix(1,0,0,1,332,492) translate(188 55.25333333333333)"/><use xlink:href="#D" transform="matrix(1,0,0,1,332,492) translate(205.4933333333333 55.25333333333333)"/><use xlink:href="#E" transform="matrix(1,0,0,1,332,492) translate(222.98666666666662 55.25333333333333)"/><use xlink:href="#F" transform="matrix(1,0,0,1,332,492) translate(240.47999999999996 55.25333333333333)"/><use xlink:href="#G" transform="matrix(1,0,0,1,332,492) translate(257.9733333333333 55.25333333333333)"/><path d="M320 560h400v80H320z" stroke="#5e5e5e" stroke-width="3" fill="#f5b5c8"/><g><use xlink:href="#H" transform="matrix(1,0,0,1,332,572) translate(109.28 28)"/><use xlink:href="#I" transform="matrix(1,0,0,1,332,572) translate(135.52 28)"/><use xlink:href="#g" transform="matrix(1,0,0,1,332,572) translate(161.76 28)"/><use xlink:href="#J" transform="matrix(1,0,0,1,332,572) translate(188 28)"/><use xlink:href="#K" transform="matrix(1,0,0,1,332,572) translate(214.24 28)"/><use xlink:href="#L" transform="matrix(1,0,0,1,332,572) translate(240.48 28)"/><use xlink:href="#x" transform="matrix(1,0,0,1,332,572) translate(65.93597222222226 55.25333333333333)"/><use xlink:href="#M" transform="matrix(1,0,0,1,332,572) translate(83.42930555555559 55.25333333333333)"/><use xlink:href="#N" transform="matrix(1,0,0,1,332,572) translate(100.92263888888891 55.25333333333333)"/><use xlink:href="#O" transform="matrix(1,0,0,1,332,572) translate(118.41597222222224 55.25333333333333)"/><use xlink:href="#P" transform="matrix(1,0,0,1,332,572) translate(135.90930555555556 55.25333333333333)"/><use xlink:href="#Q" transform="matrix(1,0,0,1,332,572) translate(170.8959722222222 55.25333333333333)"/><use xlink:href="#R" transform="matrix(1,0,0,1,332,572) translate(188.38930555555555 55.25333333333333)"/><use xlink:href="#C" transform="matrix(1,0,0,1,332,572) translate(205.88263888888886 55.25333333333333)"/><use xlink:href="#S" transform="matrix(1,0,0,1,332,572) translate(223.3759722222222 55.25333333333333)"/></g><path d="M320 320h400v80H320z" stroke="#5e5e5e" stroke-width="3" fill="#c7e8ac"/><g><use xlink:href="#T" transform="matrix(1,0,0,1,332,332) translate(74.23593749999999 28)"/><use xlink:href="#U" transform="matrix(1,0,0,1,332,332) translate(170.56406249999998 28)"/><use xlink:href="#g" transform="matrix(1,0,0,1,332,332) translate(196.8040625 28)"/><use xlink:href="#h" transform="matrix(1,0,0,1,332,332) translate(223.0440625 28)"/><use xlink:href="#i" transform="matrix(1,0,0,1,332,332) translate(249.2840625 28)"/><use xlink:href="#j" transform="matrix(1,0,0,1,332,332) translate(275.5240625 28)"/><use xlink:href="#V" transform="matrix(1,0,0,1,332,332) translate(104.84927083333336 55.25333333333333)"/><use xlink:href="#W" transform="matrix(1,0,0,1,332,332) translate(186.56135416666666 55.25333333333333)"/><use xlink:href="#X" transform="matrix(1,0,0,1,332,332) translate(204.0546875 55.25333333333333)"/></g><path d="M320 240h400v80H320z" stroke="#5e5e5e" stroke-width="3" fill="#a3d977"/><g><use xlink:href="#T" transform="matrix(1,0,0,1,332,252) translate(74.23593749999999 28)"/><use xlink:href="#Y" transform="matrix(1,0,0,1,332,252) translate(170.56406249999998 28)"/><use xlink:href="#Z" transform="matrix(1,0,0,1,332,252) translate(196.8040625 28)"/><use xlink:href="#h" transform="matrix(1,0,0,1,332,252) translate(223.0440625 28)"/><use xlink:href="#i" transform="matrix(1,0,0,1,332,252) translate(249.2840625 28)"/><use xlink:href="#j" transform="matrix(1,0,0,1,332,252) translate(275.5240625 28)"/><use xlink:href="#x" transform="matrix(1,0,0,1,332,252) translate(77.17062500000004 55.25333333333333)"/><use xlink:href="#aa" transform="matrix(1,0,0,1,332,252) translate(94.66395833333337 55.25333333333333)"/><use xlink:href="#ab" transform="matrix(1,0,0,1,332,252) translate(112.1572916666667 55.25333333333333)"/><use xlink:href="#y" transform="matrix(1,0,0,1,332,252) translate(129.65062500000002 55.25333333333333)"/><use xlink:href="#P" transform="matrix(1,0,0,1,332,252) translate(147.14395833333333 55.25333333333333)"/><use xlink:href="#y" transform="matrix(1,0,0,1,332,252) translate(182.130625 55.25333333333333)"/><use xlink:href="#ac" transform="matrix(1,0,0,1,332,252) translate(199.62395833333332 55.25333333333333)"/></g><path d="M320 160h400v80H320z" stroke="#5e5e5e" stroke-width="3" fill="#7ab648"/><g><use xlink:href="#ad" transform="matrix(1,0,0,1,332,172) translate(69.91999999999999 28)"/><use xlink:href="#ae" transform="matrix(1,0,0,1,332,172) translate(96.15999999999998 28)"/><use xlink:href="#af" transform="matrix(1,0,0,1,332,172) translate(122.39999999999998 28)"/><use xlink:href="#Z" transform="matrix(1,0,0,1,332,172) translate(148.64 28)"/><use xlink:href="#f" transform="matrix(1,0,0,1,332,172) translate(174.88 28)"/><use xlink:href="#g" transform="matrix(1,0,0,1,332,172) translate(201.11999999999998 28)"/><use xlink:href="#h" transform="matrix(1,0,0,1,332,172) translate(227.35999999999999 28)"/><use xlink:href="#i" transform="matrix(1,0,0,1,332,172) translate(253.6 28)"/><use xlink:href="#j" transform="matrix(1,0,0,1,332,172) translate(279.84000000000003 28)"/><use xlink:href="#ag" transform="matrix(1,0,0,1,332,172) translate(85.91729166666669 55.25333333333333)"/><use xlink:href="#ah" transform="matrix(1,0,0,1,332,172) translate(167.62937499999998 55.25333333333333)"/><use xlink:href="#ai" transform="matrix(1,0,0,1,332,172) translate(185.12270833333332 55.25333333333333)"/><use xlink:href="#aa" transform="matrix(1,0,0,1,332,172) translate(202.61604166666666 55.25333333333333)"/><use xlink:href="#ab" transform="matrix(1,0,0,1,332,172) translate(220.109375 55.25333333333333)"/><use xlink:href="#aj" transform="matrix(1,0,0,1,332,172) translate(237.60270833333334 55.25333333333333)"/><use xlink:href="#ak" transform="matrix(1,0,0,1,332,172) translate(255.09604166666668 55.25333333333333)"/></g><path d="M740 166c0-3.3 2.7-6 6-6h208c3.3 0 6 2.7 6 6v228c0 3.3-2.7 6-6 6H746c-3.3 0-6-2.7-6-6z" fill="none"/><path d="M740 400c5.52 0 10-4.48 10-10V290c0-5.52 4.48-10 10-10-5.52 0-10-4.48-10-10V170c0-5.52-4.48-10-10-10" stroke="#5e5e5e" stroke-width="3" fill="none"/><g><use xlink:href="#al" transform="matrix(1,0,0,1,775,165) translate(0 123.08888888888889)"/><use xlink:href="#am" transform="matrix(1,0,0,1,775,165) translate(93.65234375 123.08888888888889)"/><use xlink:href="#an" transform="matrix(1,0,0,1,775,165) translate(115.51901041666667 123.08888888888889)"/></g><path d="M740 486c0-3.3 2.7-6 6-6h208c3.3 0 6 2.7 6 6v148c0 3.3-2.7 6-6 6H746c-3.3 0-6-2.7-6-6z" fill="none"/><path d="M740 640c5.52 0 10-4.48 10-10v-60c0-5.52 4.48-10 10-10-5.52 0-10-4.48-10-10v-60c0-5.52-4.48-10-10-10" stroke="#5e5e5e" stroke-width="3" fill="none"/><g><use xlink:href="#ao" transform="matrix(1,0,0,1,775,485) translate(0 83.08888888888889)"/><use xlink:href="#ap" transform="matrix(1,0,0,1,775,485) translate(21.866666666666667 83.08888888888889)"/><use xlink:href="#aq" transform="matrix(1,0,0,1,775,485) translate(43.733333333333334 83.08888888888889)"/><use xlink:href="#ar" transform="matrix(1,0,0,1,775,485) translate(65.6 83.08888888888889)"/><use xlink:href="#as" transform="matrix(1,0,0,1,775,485) translate(87.46666666666667 83.08888888888889)"/><use xlink:href="#an" transform="matrix(1,0,0,1,775,485) translate(109.33333333333334 83.08888888888889)"/></g><path d="M740 406c0-3.3 2.7-6 6-6h208c3.3 0 6 2.7 6 6v68c0 3.3-2.7 6-6 6H746c-3.3 0-6-2.7-6-6z" fill="none"/><path d="M740 480c5.52 0 10-4.48 10-10v-20c0-5.52 4.48-10 10-10-5.52 0-10-4.48-10-10v-20c0-5.52-4.48-10-10-10" stroke="#5e5e5e" stroke-width="3" fill="none"/><g><use xlink:href="#at" transform="matrix(1,0,0,1,775,405) translate(0 43.08888888888889)"/><use xlink:href="#au" transform="matrix(1,0,0,1,775,405) translate(21.866666666666667 43.08888888888889)"/><use xlink:href="#av" transform="matrix(1,0,0,1,775,405) translate(43.733333333333334 43.08888888888889)"/><use xlink:href="#as" transform="matrix(1,0,0,1,775,405) translate(65.6 43.08888888888889)"/><use xlink:href="#an" transform="matrix(1,0,0,1,775,405) translate(87.46666666666667 43.08888888888889)"/></g><path d="M240 486c0-3.3 2.7-6 6-6h68c3.3 0 6 2.7 6 6v68c0 3.3-2.7 6-6 6h-68c-3.3 0-6-2.7-6-6z" fill="none"/><g><use xlink:href="#aw" transform="matrix(1,0,0,1,240,480) translate(26.62109375 47.693142361111114)"/></g><path d="M240 326c0-3.3 2.7-6 6-6h68c3.3 0 6 2.7 6 6v68c0 3.3-2.7 6-6 6h-68c-3.3 0-6-2.7-6-6z" fill="none"/><g><use xlink:href="#ax" transform="matrix(1,0,0,1,240,320) translate(33.310546875 47.693142361111114)"/></g><path d="M240 246c0-3.3 2.7-6 6-6h68c3.3 0 6 2.7 6 6v68c0 3.3-2.7 6-6 6h-68c-3.3 0-6-2.7-6-6z" fill="none"/><g><use xlink:href="#ay" transform="matrix(1,0,0,1,240,240) translate(33.310546875 47.693142361111114)"/></g><path d="M240 166c0-3.3 2.7-6 6-6h68c3.3 0 6 2.7 6 6v68c0 3.3-2.7 6-6 6h-68c-3.3 0-6-2.7-6-6z" fill="none"/><g><use xlink:href="#az" transform="matrix(1,0,0,1,240,160) translate(33.310546875 47.693142361111114)"/></g><path d="M240 406c0-3.3 2.7-6 6-6h68c3.3 0 6 2.7 6 6v68c0 3.3-2.7 6-6 6h-68c-3.3 0-6-2.7-6-6z" fill="none"/><g><use xlink:href="#aA" transform="matrix(1,0,0,1,240,400) translate(33.310546875 47.693142361111114)"/></g><path d="M720 680h200v40H720z" fill="none"/><g><use xlink:href="#aB" transform="matrix(1,0,0,1,720,680) translate(9.4466666666668 32.89999999999995)"/><use xlink:href="#aC" transform="matrix(1,0,0,1,720,680) translate(36.39333333333342 32.89999999999995)"/><use xlink:href="#aD" transform="matrix(1,0,0,1,720,680) translate(67.22533333333337 32.89999999999995)"/><use xlink:href="#aE" transform="matrix(1,0,0,1,720,680) translate(98.05733333333333 32.89999999999995)"/><use xlink:href="#aF" transform="matrix(1,0,0,1,720,680) translate(128.8893333333333 32.89999999999995)"/><use xlink:href="#aG" transform="matrix(1,0,0,1,720,680) translate(159.72133333333323 32.89999999999995)"/></g><defs><path fill="#333" d="M356-643h521v164H356v-164" id="aH"/><path fill="#333" d="M563-1520c272-5 493 161 486 422-5 184-82 278-189 404-156 183-266 291-487 524h686V0H152v-170c181-191 381-399 520-561 68-80 112-147 135-197s35-102 35-155c2-166-108-271-275-267-164 4-280 61-403 133v-204c119-56 242-96 399-99" id="aI"/><g id="a"><use transform="matrix(0.010850694444444444,0,0,0.010850694444444444,0,0)" xlink:href="#aH"/><use transform="matrix(0.010850694444444444,0,0,0.010850694444444444,13.37890625,0)" xlink:href="#aI"/></g><path fill="#333" d="M157-779c45 55 90 127 123 193l-60 47c-30-72-76-145-119-204zm311 94c42 21 99 54 139 81 47-27 92-58 135-89H344v-62h516v60c-64 45-128 91-195 131 4 3-2 6-3 9h200v410c6 89-68 93-147 100l-21-66c48-6 109 7 100-61v-31H635v139h-67v-139H413v150h-68v-502h216c-38-28-89-58-129-80zm-55 194v82h155v-82H413zm381 0H635v82h159v-82zM26 2c50-40 90-77 134-124v-269H48v-74h184v340C294 19 513 1 720 5c77 0 159-2 231-6l-14 70c-178 5-390 17-553-9C298 46 241 2 199-59 162-17 118 25 74 68zm542-267v-81H413v81h155zm226 0v-81H635v81h159" id="aJ"/><use transform="matrix(0.026666666666666665,0,0,0.026666666666666665,0,0)" xlink:href="#aJ" id="b"/><path fill="#333" d="M41 75c79-109 111-222 111-416v-406h704v720C866 84 773 85 673 89l-25-75c56-10 131 16 131-66v-139H537V82h-76v-273H223C210-65 167 22 112 108zm187-750v174h233v-174H228zm551 0H537v174h242v-174zM461-265v-162H228c-1 54 1 110-1 162h234zm318 0v-162H537v162h242" id="aK"/><use transform="matrix(0.026666666666666665,0,0,0.026666666666666665,0,0)" xlink:href="#aK" id="c"/><path fill="#333" d="M818-746v848h-76V32H245v73h-77v-851h650zm-573 74v159h497v-159H245zm0 231v161h497v-161H245zM742-42v-166H245v166h497" id="aL"/><use transform="matrix(0.026666666666666665,0,0,0.026666666666666665,0,0)" xlink:href="#aL" id="d"/><path fill="#333" d="M455-482c57-94 107-224 137-343l73 15c-16 57-33 110-53 163h278c-4 206-8 405-17 605 0 81-38 111-117 117l-86 7-24-76c66-11 151 17 151-71 0-160 12-347 15-511l-228 1c-19 45-39 87-61 129zM204-645c20-53 33-111 47-171l81 17c-12 51-27 105-45 154h155V59H101v-704h103zm168 72H171v237h201v-237zm216 118c49 65 105 154 144 234l-64 43c-39-83-93-170-139-237zM372-11v-252H171v252h201" id="aM"/><use transform="matrix(0.026666666666666665,0,0,0.026666666666666665,0,0)" xlink:href="#aM" id="e"/><path fill="#333" d="M515-448c86 75 178 167 248 257l-52 66c-61-89-144-175-221-248-51 110-124 180-225 258l-49-64c127-99 232-183 236-396H204V90h-75v-738h323v-152l77 3v149h326v610C868 87 761 77 657 92l-27-76c64-14 149 13 149-79v-512H529c-2 47-5 87-14 127" id="aN"/><use transform="matrix(0.026666666666666665,0,0,0.026666666666666665,0,0)" xlink:href="#aN" id="f"/><path fill="#333" d="M407-626c-36 74-78 142-126 205v525h-72v-440c-42 45-86 87-133 128l-51-59c119-99 219-216 293-359H87v-68h264c15-35 29-73 42-113l79 13c-11 33-23 67-36 100h475v68H407zm525 433H673c-2 73 8 160-5 224-14 70-110 62-190 72l-25-72c61-13 148 14 147-72l-1-152H338v-69h261v-74l149-107H397v-66h468v66L673-302v40h259v69" id="aO"/><use transform="matrix(0.026666666666666665,0,0,0.026666666666666665,0,0)" xlink:href="#aO" id="g"/><path fill="#333" d="M607-808c67 185 186 306 346 400l-46 69C731-440 619-580 540-780zM34-411c151-91 261-218 332-380l72 28C359-584 240-457 88-348zm177-10h544c-11 141-10 303-37 429-14 67-107 57-185 65L504-2c53-8 129 9 140-44 17-84 19-206 27-301H405c-7 172-48 289-153 367-35 28-79 58-134 89L68 48c161-76 257-170 262-395H211v-74" id="aP"/><use transform="matrix(0.026666666666666665,0,0,0.026666666666666665,0,0)" xlink:href="#aP" id="h"/><path fill="#333" d="M55-747h466v65H378v119h121V67H91v-630h120v-119H55v-65zM630-69C619 13 709-4 779-4c85 0 68-84 78-157l71 21c-11 81 0 183-76 198-77 14-219 24-270-18-20-21-24-50-24-93v-392h245v-227H554v-72h322v370H630v305zM322-682h-55v119h55v-119zM151-270c50-49 63-126 60-228h-60v228zm287 7c-70 3-116-3-116-74v-161h-55c6 127-21 211-81 274l-35-23v76h287v-92zm-60-98c-1 39 21 43 60 42v-179h-60v137zM438 1v-112H151V1h287" id="aQ"/><use transform="matrix(0.026666666666666665,0,0,0.026666666666666665,0,0)" xlink:href="#aQ" id="i"/><path fill="#333" d="M600-360c88 74 195 99 346 122l-25 66c-25-5-49-9-72-16V89h-67V39H598v50h-67v-302h230c-103-33-187-80-254-147h-40c-55 78-146 114-249 147h229V89h-67V39H201v50h-67v-278c-24 6-46 11-70 17l-29-67c152-27 255-50 340-121H76v-64h347c12-25 21-52 29-82l75 16c-8 24-16 46-24 66h181c-19-17-46-44-67-57l34-38H534v-244h317v244H666c27 20 55 46 81 68l-19 27h177v64H600zM444-519H129v-244h315v244zm-67-184H196v123h181v-123zm224 123h184v-123H601v123zM380-153H201v133h179v-133zM782-20v-133H598v133h184" id="aR"/><use transform="matrix(0.026666666666666665,0,0,0.026666666666666665,0,0)" xlink:href="#aR" id="j"/><path fill="#333" d="M657-331c0 191 54 313 144 441h-82C629-9 571-138 571-324c0-193 60-323 151-446h82c-82 119-147 246-147 439" id="aS"/><path fill="#333" d="M743-135c139 0 246-55 330-125v207C978-3 879 29 743 29c-415 0-604-328-604-774 0-244 53-435 159-571s255-204 445-204c135 1 236 32 330 82v207c-84-70-192-125-330-125-131 0-224 54-295 152-125 174-126 743 0 917 71 98 164 152 295 152" id="aT"/><g id="k"><use transform="matrix(0.01777777777777777,0,0,0.01777777777777777,0,0)" xlink:href="#aS"/><use transform="matrix(0.008680555555555552,0,0,0.008680555555555552,17.493333333333325,0)" xlink:href="#aT"/></g><path fill="#333" d="M550-814c15 35 28 78 40 116h334v65H225c-2 231 17 474-63 631-15 34-34 71-56 110L36 74c75-128 118-255 118-461v-311h356c-9-31-24-75-34-102zM442-519c17-36 34-72 49-108l72 19c-13 29-27 60-41 89h367v68H488c-29 53-59 109-89 158h168v-119l74 2v117h228v66H641v107h295v68H641v152h-74V-52H244v-68h323v-107H317v-66c31-48 62-105 91-158H265v-68h177" id="aU"/><use transform="matrix(0.01777777777777777,0,0,0.01777777777777777,0,0)" xlink:href="#aU" id="l"/><path fill="#333" d="M560-335c78 50 163 115 229 178l-40 64c-61-65-141-129-215-181-6 86 26 203-60 218-27 7-75 10-110 13l-24-72c51-10 120 10 120-62v-375c76-33 143-77 209-123H171v-70h640v62c-88 62-178 118-277 166v218zM183-178c79-43 159-103 220-164 15 16 29 33 42 51-66 61-144 127-224 173l-38-49V-3h613v-588l76 3v699h-76V70H108v-661l75 3v410zm190-161c-45-56-104-114-156-161l48-45c52 46 110 102 155 154zm195-40c59-46 112-101 156-157l50 47c-45 58-96 109-157 163" id="aV"/><use transform="matrix(0.01777777777777777,0,0,0.01777777777777777,0,0)" xlink:href="#aV" id="m"/><path fill="#333" d="M854-568c-14 163-37 308-101 420C800-81 865-16 947 46l-52 54C824 43 765-15 713-85 656-10 590 46 508 105l-46-56c87-59 155-115 209-197-51-88-80-181-99-298-11 19-22 39-34 57l-56-36c71-101 123-233 152-375l70 17c-11 50-25 97-42 143h260v72h-68zM31-362c88-42 159-100 219-166H62v-61h205v-205l67 4v201h180v61H334v186h-67v-123c-55 63-121 115-200 157zm337-270c30-40 57-90 78-139l56 25c-23 50-53 101-84 142zm-206 27c-15-50-40-98-63-140l53-20c25 40 48 93 65 141zm458 65c15 128 40 228 90 322 47-102 63-210 77-350H632zm-235 45c39 30 92 84 126 123l-40 46c-37-45-83-94-126-132zm-7 428c31 16 61 28 93 44l-27 66c-38-23-78-43-119-64C253 31 175 64 73 98L38 35c88-26 156-50 221-89-51-25-101-46-149-64 19-31 38-63 55-95H49v-60h146c11-23 21-46 30-70l64 21c-7 17-13 33-20 49h208v57c-28 58-55 106-99 149zM240-213c-12 25-26 48-39 71 39 16 75 30 114 48 40-34 64-71 88-119H240" id="aW"/><use transform="matrix(0.01777777777777777,0,0,0.01777777777777777,0,0)" xlink:href="#aW" id="n"/><path fill="#333" d="M471-1147c112 0 171 55 205 141 41-85 99-141 213-141 90 0 154 35 191 105s55 200 55 393V0H967v-641c0-158-12-256-27-295-31-81-176-72-206 4-17 42-29 138-29 291V0H537v-641c0-160-10-259-29-296s-53-56-102-56-83 20-102 61-28 138-28 291V0H109v-1120h167v96c38-70 97-123 195-123" id="aX"/><path fill="#333" d="M547-125c229-2 340-186 327-438H641c-189 0-321 55-324 225-3 137 91 215 230 213zm-332-944c167-71 431-115 615-37 106 45 186 120 213 246 11 49 16 123 16 221V0H874v-166C800-42 695 26 508 29c-220 3-378-138-375-355 4-274 199-382 494-381h247c6-204-80-285-282-284-149 1-272 46-377 106v-184" id="aY"/><path fill="#333" d="M801 0C570 0 455-164 455-406v-1017H160v-144h479v1161c0 147 46 250 180 250h215V0H801" id="aZ"/><path fill="#333" d="M616-991c-93 0-161 39-212 109-92 126-92 520 0 646 52 70 119 109 212 109 94 0 161-39 213-109 93-126 92-520 0-646-52-70-119-109-213-109zM137-559c0-353 146-588 479-588s480 235 480 588c0 355-145 588-480 588-334 0-479-234-479-588" id="ba"/><path fill="#333" d="M748-127c144 0 233-46 313-121v191C974-6 875 28 748 29c-351 3-553-232-553-588 0-357 202-591 553-588 129 2 222 35 313 86v193c-88-76-165-123-313-123-245 0-359 174-359 432 0 257 115 432 359 432" id="bb"/><path fill="#333" d="M413-324c0 186-58 315-148 434h-82c91-129 144-250 144-441 0-193-65-320-147-439h82c91 124 151 252 151 446" id="bc"/><g id="o"><use transform="matrix(0.008680555555555552,0,0,0.008680555555555552,0,0)" xlink:href="#aX"/><use transform="matrix(0.008680555555555552,0,0,0.008680555555555552,10.703124999999996,0)" xlink:href="#aY"/><use transform="matrix(0.008680555555555552,0,0,0.008680555555555552,21.406249999999993,0)" xlink:href="#aZ"/><use transform="matrix(0.008680555555555552,0,0,0.008680555555555552,32.109374999999986,0)" xlink:href="#aZ"/><use transform="matrix(0.008680555555555552,0,0,0.008680555555555552,42.812499999999986,0)" xlink:href="#ba"/><use transform="matrix(0.008680555555555552,0,0,0.008680555555555552,53.515624999999986,0)" xlink:href="#bb"/><use transform="matrix(0.01777777777777777,0,0,0.01777777777777777,64.21874999999999,0)" xlink:href="#bc"/></g><path fill="#333" d="M16-317c46-13 98-29 145-45v-195H59v-68h102v-170l68 3v167h100v68H229v171c25-10 51-20 74-31 3 23 7 46 12 68-27 11-57 23-86 35-2 111 7 234-4 338-6 59-80 54-143 61L60 11c49-6 101 6 101-62v-237c-39 15-84 30-122 42zm795-246H399v-200h412v200zm-68-142H466v82h277v-82zM572-311H336v-199h236v199zm60-199h240v199H632v-199zm-120 57H396v84h116v-84zm179 84h122v-84H691v84zm-21 208C746-90 837-33 950 3l-35 63C800 15 719-35 639-114v216h-70v-214C486-37 401 21 283 68L245 5c125-41 211-93 294-166H305v-64h264v-64l70 3v61h266v64H670" id="bd"/><use transform="matrix(0.026666666666666665,0,0,0.026666666666666665,0,0)" xlink:href="#bd" id="p"/><path fill="#333" d="M281-409c95-114 168-240 220-393l70 29c-15 41-29 77-47 117h396v76H608v157h257v72H608v162h275v73H608v218h-77v-682h-45c-44 80-90 149-150 224zM20-350c106-122 186-269 242-436l74 29c-26 64-52 129-85 193V98h-76v-528c-30 46-64 91-101 136" id="be"/><use transform="matrix(0.026666666666666665,0,0,0.026666666666666665,0,0)" xlink:href="#be" id="q"/><path fill="#333" d="M468-440c-109 4-222 4-323 13l-14-66c86-8 111-44 173-83 34-25 67-53 99-82-95 6-197 12-287 15l-13-73c256-8 521-24 758-51l12 73c-132 14-278 23-417 33l21 25c-58 55-106 95-172 137 80-1 177-6 256-9 54-41 107-86 155-133l48 56C643-473 501-371 350-290c126-4 261-10 387-15-29-30-62-63-90-88l54-46c70 63 147 143 204 219l-52 56c-13-21-31-44-52-69-84 3-172 4-258 7-2 83 10 180-5 254-13 64-110 52-184 63l-25-74c42-6 99-2 128-20 10-9 11-21 11-41v-179c-118 4-229 7-338 19l-15-76c145-22 245-94 353-160zM39 6c97-54 199-116 278-188l44 59C276-53 175 13 76 69zm869 61C826-1 714-66 617-119l37-60C751-129 857-67 943-4" id="bf"/><use transform="matrix(0.026666666666666665,0,0,0.026666666666666665,0,0)" xlink:href="#bf" id="r"/><path fill="#333" d="M486-333c-47 3-72 5-112 11l-19-65c59-17 80-69 115-113 28-34 54-77 78-114H370v-69h235c-9-36-29-91-42-120l72-13c16 41 33 89 46 133h229v69H627c-46 72-97 152-151 214 92-3 205-8 297-13-26-39-60-83-87-115l54-37c57 68 119 151 164 231l-53 54c-11-23-24-45-37-68-26 0-54 2-82 3v305c-14 65 76 54 114 39 26-28 24-83 27-132l62 22c-6 64 0 143-43 169-49 30-215 37-222-34-4-13-5-30-5-51v-315l-110 6c4 171-25 295-117 372-28 26-63 52-106 78l-45-61c138-70 212-167 199-386zM228-449c-55 5-117 2-163 15l-15-71c37-13 42-40 65-75 38-68 79-149 109-226l65 29c-39 90-87 187-139 264l119-6c18-35 39-71 55-107l62 32c-54 112-120 230-188 327l165-23 1 71c-91 15-191 27-278 45l-17-69c57-18 65-63 101-110 19-30 38-62 58-96zM31-46c110-19 239-43 343-69 3 25 5 49 9 73C278-19 153 6 44 25" id="bg"/><use transform="matrix(0.026666666666666665,0,0,0.026666666666666665,0,0)" xlink:href="#bg" id="s"/><path fill="#333" d="M40 67c80-109 114-231 114-425v-274h287v-175l71 3v54h338v60H512v58h385c6 70-18 110-31 161l-67-11 27-88H225c-1 214 14 438-67 578-15 30-33 63-54 96zm481-366c-71-3-87-40-85-117l-181 11-2-61 183-10v-68l69 3v61l237-14 3 58-240 15c0 44 0 67 45 67 61 3 121 0 182 0 58 0 55-41 62-89l62 21c-6 55-9 109-60 117-82 13-185 11-275 6zM923 2v63H195V2h241v-274l67 3V2h112v-274l67 3V2h241zM711-101c39-47 79-104 109-159l54 33c-30 57-71 115-110 164zM301-251c32 38 73 98 101 142l-49 41c-26-47-68-106-100-147" id="bh"/><use transform="matrix(0.026666666666666665,0,0,0.026666666666666665,0,0)" xlink:href="#bh" id="t"/><path fill="#333" d="M33-301c48-13 105-33 154-51v-191H67v-73h120v-185l69 2v183h104v73H256v165c33-13 66-28 96-40 3 24 7 47 10 71-31 15-70 31-106 45v285c3 92-67 102-156 108L81 17c50-7 106 8 106-63v-228c-46 17-97 35-140 48zm537-483c45 63 93 141 128 214l-57 45c-32-78-80-160-125-224zm210 576c57 69 125 147 170 227l-58 63C852 5 796-67 743-132 681-32 604 28 501 103l-48-62C607-62 732-169 748-406c11-107 14-244 14-365l73 2c-5 203 1 416-55 561zM371-104c18-19 26-26 26-54v-576l70 2v542c48-47 115-105 163-151l32 64c-75 71-171 153-243 224" id="bi"/><use transform="matrix(0.026666666666666665,0,0,0.026666666666666665,0,0)" xlink:href="#bi" id="u"/><path fill="#333" d="M323-542c-12-31-37-84-52-113h-55c-29 42-62 83-95 121l-58-43c62-63 122-148 159-232l77 13c-14 28-27 52-43 78h251v63H343c14 26 31 62 43 87zm165-73c44-58 76-120 105-193l75 11c-12 28-22 53-36 79h288v63H761c15 23 34 59 46 82l-58 30c-14-31-42-83-62-112h-88c-14 26-28 48-45 72zm13 9c10 20 21 54 31 77h351v145h-76v-85H177v85h-76v-145h363c-8-21-18-47-26-65zM266-135h542v239h-75V64H266v43h-77v-502h597v188H266v72zm0-202v70h446v-70H266zm0 261V7h467v-83H266" id="bj"/><use transform="matrix(0.026666666666666665,0,0,0.026666666666666665,0,0)" xlink:href="#bj" id="v"/><path fill="#333" d="M940-3v69H329V-3h270v-117H387v-67h212v-110H401v-449h469v449H670v110h227v67H670V-3h270zM36-49c44-7 97-18 143-28v-272H64v-70h115v-227H54v-69h306v69H249v227h106v70H249v256c37-10 77-18 110-29l6 71C269-23 151 2 46 21zm436-629v123h127v-123H472zm329 0H670v123h131v-123zM599-365v-123H472v123h127zm202 0v-123H670v123h131" id="bk"/><use transform="matrix(0.026666666666666665,0,0,0.026666666666666665,0,0)" xlink:href="#bk" id="w"/><use transform="matrix(0.01777777777777777,0,0,0.01777777777777777,0,0)" xlink:href="#aS" id="x"/><use transform="matrix(0.01777777777777777,0,0,0.01777777777777777,0,0)" xlink:href="#aN" id="y"/><path fill="#333" d="M625-367c-73 4-153 4-217 15l-18-65c64-23 86-87 127-136 10-15 20-31 29-46H377v-68h240c-12-42-26-90-40-129l69-13c15 43 31 97 45 142h247v68H629c-36 59-75 119-119 169l173-7c30-40 57-80 84-124l61 35C711-331 563-191 363-76l-43-62c125-69 217-133 305-229zm-340-63c39 41 85 90 117 138l-50 52c-26-42-58-86-90-123v473h-69v-494c-34 85-74 169-120 237l-55-48c69-97 127-218 171-341H66v-71h127v-186l69 3v183h108v71H262v127zm601 105c-48 79-99 145-164 206C791-72 867-18 925 39l-45 73C821 45 743-19 670-73 583 1 487 55 376 113l-43-61c213-99 378-224 498-414" id="bl"/><use transform="matrix(0.01777777777777777,0,0,0.01777777777777777,0,0)" xlink:href="#bl" id="z"/><path fill="#333" d="M413-551c12-39 26-92 36-132H79v-74h817v74H534c-11 39-25 92-36 132h307v411h-78v-338H249v342h-78v-415h242zm-40 436c76-61 80-166 78-302l75 3c2 151-3 271-86 342C349 10 236 50 85 98L47 26c140-39 241-71 326-141zM870 95C756 24 619-46 496-107l33-63C652-114 788-49 902 16" id="bm"/><use transform="matrix(0.01777777777777777,0,0,0.01777777777777777,0,0)" xlink:href="#bm" id="A"/><path fill="#333" d="M739-802c41 37 82 86 114 132l-34 36h95v73H624c16 198 33 381 107 516 19 31 34 49 71 42 34-33 38-103 49-162l64 30c-18 84-27 184-95 216-88 16-129-32-165-102-70-135-98-319-109-540H63v-73h480l-6-169 79 3c0 49 2 112 4 166h173c-30-44-67-90-104-126zM52-45c65-8 142-17 211-26v-263H93v-71h416v71H341v253c67-9 142-20 203-31 1 25 1 49 2 74C396-15 220 11 64 28" id="bn"/><use transform="matrix(0.01777777777777777,0,0,0.01777777777777777,0,0)" xlink:href="#bn" id="B"/><use transform="matrix(0.01777777777777777,0,0,0.01777777777777777,0,0)" xlink:href="#aO" id="C"/><path fill="#333" d="M681-252C724-110 818-40 948 31l-40 70C787 33 698-38 645-165 590-39 492 34 369 109l-47-67c140-73 233-145 273-294H367v-68h59v-322h179v-152l72 3v149h182v322h71v68H681zM342 0H91v-699h251V0zM158-624v235h117v-235H158zm446 304c2-81 0-168 1-251H494v251h110zm73-251v251h114v-251H677zM275-75v-243H158v243h117" id="bo"/><use transform="matrix(0.01777777777777777,0,0,0.01777777777777777,0,0)" xlink:href="#bo" id="D"/><path fill="#333" d="M238-699c12-29 25-77 33-107l78 12c-8 27-22 68-33 95h151v679c9 108-85 108-184 112l-23-67c62-9 144 14 144-69v-152h-37C298-85 193 1 77 74L33 16c103-58 191-122 257-212H53v-60h81v-443h104zm697 178H828v479C838 82 732 85 618 90l-25-71c72-10 163 17 163-81v-459H499v-68h257v-205l72 2v203h107v68zM404-639H198v89h206v-89zm0 147H198v88h206v-88zm167 51c49 65 98 150 135 227l-58 45c-33-83-82-170-130-238zM404-256v-89H198v89h206" id="bp"/><use transform="matrix(0.01777777777777777,0,0,0.01777777777777777,0,0)" xlink:href="#bp" id="E"/><use transform="matrix(0.01777777777777777,0,0,0.01777777777777777,0,0)" xlink:href="#bj" id="F"/><g id="G"><use transform="matrix(0.01777777777777777,0,0,0.01777777777777777,0,0)" xlink:href="#bk"/><use transform="matrix(0.01777777777777777,0,0,0.01777777777777777,17.493333333333325,0)" xlink:href="#bc"/></g><path fill="#333" d="M554-810c11 24 25 68 34 97h330v70H235c0 233 12 473-63 636-15 36-32 74-53 113L46 68c80-126 117-262 117-471v-310h345c-8-26-19-60-28-83zm98 330c3 56 5 106 11 157h249v72H673C690-149 716-66 774-9c46 44 70-28 80-67 4-14 9-30 12-45l62 36C902-15 894 76 806 84 685 70 650-60 618-169c-6-25-10-52-14-82H396v205c57-26 132-60 187-87l14 65c-20 10-52 25-77 36 38 27 79 61 112 93l-38 55C561 75 515 39 472 8l23-28C434 9 378 30 324 59L292-7c19-16 31-18 31-45v-474c180-6 359-22 521-46l16 66c-67 11-136 19-208 26zm-67 7c-64 6-127 11-189 14v136h199c-6-48-7-96-10-150" id="bq"/><use transform="matrix(0.026666666666666665,0,0,0.026666666666666665,0,0)" xlink:href="#bq" id="H"/><path fill="#333" d="M245-507c4 202-7 372-73 501-17 37-38 76-62 117L35 77c96-133 138-280 136-519l-3-307h709v242H245zm0-179v119h558v-119H245zm55 343v-63h560v63H300zM792 41c-164 9-350 12-503 30L273 8c87-40 142-115 203-183H250v-65h688v65H567C521-115 466-56 409-7c101-5 228-11 331-15-27-30-53-63-80-88l55-39C781-86 850-4 904 70l-52 56c-17-27-40-58-60-85" id="br"/><use transform="matrix(0.026666666666666665,0,0,0.026666666666666665,0,0)" xlink:href="#br" id="I"/><path fill="#333" d="M548-241c-26 19-53 39-80 57l-39-52c96-59 178-122 250-201H461v-63h157v-125H500v-61h118v-115l64 3v112h112v61H682v125h49c56-73 98-154 126-241l65 20c-33 82-70 153-115 221h129v63H760c-29 36-59 67-93 98h196V96h-64V44H611v52h-63v-337zM22-343c92-125 163-283 206-456l74 11c-22 75-44 143-72 211v677h-66v-536c-27 49-56 97-87 142zm348-433c37 48 73 113 101 169l-57 43c-24-63-62-128-98-180zM316-1c17-16 28-29 29-58v-374h-83v-71h150v426c27-21 60-51 84-74l24 64C470-39 408 8 360 57zm483-276H611v98h188v-98zm0 259v-101H611v101h188" id="bs"/><use transform="matrix(0.026666666666666665,0,0,0.026666666666666665,0,0)" xlink:href="#bs" id="J"/><path fill="#333" d="M179-788c52 51 106 114 148 176l-59 59c-42-66-91-135-144-190zm636 320c-71-1-105-19-105-86v-132H527c12 139-43 215-128 268l-56-56c62-41 110-80 106-182v-97h340v165c-12 75 84 43 142 50l-9 70H815zM151 17c22-25 32-24 32-60v-369H47v-70h212v416c36-28 88-69 123-97l34 66C344-40 270 14 200 74zm528-117C757-44 841-4 948 32l-41 72C795 62 703 14 622-51 540 13 447 64 334 103l-40-68C402 2 489-41 568-97c-65-62-111-130-156-208l58-32h-89v-70h464l-1 70c-40 91-92 169-165 237zM477-337c43 75 84 137 148 193 59-55 104-118 142-193H477" id="bt"/><use transform="matrix(0.026666666666666665,0,0,0.026666666666666665,0,0)" xlink:href="#bt" id="K"/><path fill="#333" d="M60-533c118-71 218-168 291-281l80 21c-15 24-33 48-51 71h430v73c-75 64-151 118-242 166 114 43 232 66 381 87l-26 72c-177-29-312-60-440-118-129 55-265 94-427 123l-24-66c141-24 260-55 373-100-53-35-94-71-139-115-48 44-98 86-154 123zm255-116c52 50 103 93 171 128 80-39 147-83 213-134H321zM172-326h629v439h-76V61H247v52h-75v-439zm75 67v95h207v-95H247zm478 0H527v95h198v-95zM454-6v-95H247v95h207zm271 0v-95H527v95h198" id="bu"/><use transform="matrix(0.026666666666666665,0,0,0.026666666666666665,0,0)" xlink:href="#bu" id="L"/><path fill="#333" d="M154-712c-3 37-6 73-11 108h68v-202l70 3v199h88v67h-88v207c29-12 57-25 83-37l18 64c-30 15-66 29-101 44V95h-70v-325c-53 21-113 45-166 62l-22-67c61-19 128-43 188-66v-236h-77c-10 65-22 130-36 189l-66-13c30-103 49-232 56-358zm185 277c67-102 123-234 155-371l70 19c-8 42-27 92-44 138h375c-9 188-24 391-24 579C871 53 763 60 648 68L623-3c84-10 177 5 177-98 0-150 17-327 22-478h-49c-27 206-76 366-183 497-39 50-88 103-149 156l-56-52c141-123 235-236 286-434 12-50 24-106 36-167h-81c-31 191-130 350-254 462l-52-51c122-97 203-230 242-411h-69c-25 60-55 128-88 176" id="bv"/><use transform="matrix(0.01777777777777777,0,0,0.01777777777777777,0,0)" xlink:href="#bv" id="M"/><use transform="matrix(0.01777777777777777,0,0,0.01777777777777777,0,0)" xlink:href="#bk" id="N"/><path fill="#333" d="M484-806c22 49 40 118 56 173h352v74H531v213h320v75H531v250h403v73H50v-73h402v-250H133v-75h319v-213H92v-74h368c-15-50-33-108-51-154" id="bw"/><use transform="matrix(0.01777777777777777,0,0,0.01777777777777777,0,0)" xlink:href="#bw" id="O"/><path fill="#333" d="M306 96C265 26 206-40 145-90l55-37C269-81 328-15 376 54" id="bx"/><g id="P"><use transform="matrix(0.01777777777777777,0,0,0.01777777777777777,0,0)" xlink:href="#aO"/><use transform="matrix(0.01777777777777777,0,0,0.01777777777777777,17.493333333333325,0)" xlink:href="#bx"/></g><path fill="#333" d="M829-684v80H159v-80h670zm89 614V9H72v-79h846" id="by"/><use transform="matrix(0.01777777777777777,0,0,0.01777777777777777,0,0)" xlink:href="#by" id="Q"/><path fill="#333" d="M229-463c-58 4-119 6-168 17l-14-69c57-29 80-93 115-148 27-42 51-95 71-141l60 27c-41 89-93 177-146 254 38-2 82-4 122-5 21-37 42-72 61-109l57 30c-60 111-136 228-209 325l190-25 3 67c-96 14-202 24-291 45l-18-71c57-20 76-69 112-114 18-26 36-54 55-83zm653 38c-36 112-75 201-137 284C809-74 881-22 966 27l-45 67C838 39 765-17 699-86 629-11 552 46 456 102l-49-58C505-9 583-64 653-138c-56-70-98-146-129-241-16 203-82 341-181 465l-62-39c152-164 197-403 192-722h-83v-69h439v69c-22 64-45 125-74 182h127v68zM538-675c0 34-2 79-3 115 34 150 84 266 164 367 51-68 85-142 116-232H684v-60c30-59 54-124 76-190H538zM37-50c102-17 215-45 307-72l6 69C260-25 147 0 49 19" id="bz"/><use transform="matrix(0.01777777777777777,0,0,0.01777777777777777,0,0)" xlink:href="#bz" id="R"/><path fill="#333" d="M346-724h77L154 30H77" id="bA"/><path fill="#333" d="M637-1147c132 1 237 25 336 66v180c-92-53-190-92-322-92-145 0-248 35-248 164 0 50 15 87 46 112 23 30 197 67 303 86 166 30 278 123 278 307 0 239-191 356-446 353-140-2-251-31-371-70v-190c114 58 228 103 375 106 145 3 253-56 256-188 3-87-90-149-253-179-210-38-374-93-374-319 0-232 173-338 420-336" id="bB"/><path fill="#333" d="M0-1120h182l195 905 160-578h157l162 578 195-905h182L971 0H795L616-614 438 0H262" id="bC"/><path fill="#333" d="M674 29c-147 0-246-68-299-170v567H190v-1546h185v143c55-101 152-170 299-170 300 0 434 263 434 592 0 325-137 584-434 584zm174-265c87-125 87-521 0-646-48-70-112-109-201-109s-154 38-203 109c-89 127-89 518 0 645 49 71 114 110 203 110s153-39 201-109" id="bD"/><g id="S"><use transform="matrix(0.01777777777777777,0,0,0.01777777777777777,0,0)" xlink:href="#bs"/><use transform="matrix(0.01777777777777777,0,0,0.01777777777777777,17.493333333333325,0)" xlink:href="#bA"/><use transform="matrix(0.008680555555555552,0,0,0.008680555555555552,26.38222222222221,0)" xlink:href="#bB"/><use transform="matrix(0.008680555555555552,0,0,0.008680555555555552,37.08534722222221,0)" xlink:href="#bC"/><use transform="matrix(0.008680555555555552,0,0,0.008680555555555552,47.78847222222221,0)" xlink:href="#aY"/><use transform="matrix(0.008680555555555552,0,0,0.008680555555555552,58.49159722222221,0)" xlink:href="#bD"/><use transform="matrix(0.01777777777777777,0,0,0.01777777777777777,69.19472222222221,0)" xlink:href="#bc"/></g><path fill="#333" d="M930-1047c0-180-114-280-297-280H399v561h234c182 2 297-102 297-281zm211 0c0 308-189 448-508 447H399V0H197v-1493h436c317-2 508 140 508 446" id="bE"/><path fill="#333" d="M1153-1120C1010-750 884-433 741-52c-66 176-110 283-133 322-55 94-138 156-276 156H184V272c97 0 188 7 236-47 29-33 70-112 117-243L104-1120h195l332 876 327-876h195" id="bF"/><path fill="#333" d="M807 0C529-4 430-92 430-369v-608H131v-143h299v-318h184v318h418v143H614v608c2 165 49 222 211 222h207V0H807" id="bG"/><path fill="#333" d="M711-1147c253 0 340 178 340 453V0H866v-694c-1-183-51-293-219-293-189 0-268 148-268 354V0H195v-1556h184v604c60-118 165-195 332-195" id="bH"/><path fill="#333" d="M711-1147c253 0 340 178 340 453V0H866v-694c-1-183-51-293-219-293-189 0-268 148-268 354V0H195v-1120h184v168c60-118 165-195 332-195" id="bI"/><g id="T"><use transform="matrix(0.013020833333333332,0,0,0.013020833333333332,0,0)" xlink:href="#bE"/><use transform="matrix(0.013020833333333332,0,0,0.013020833333333332,16.0546875,0)" xlink:href="#bF"/><use transform="matrix(0.013020833333333332,0,0,0.013020833333333332,32.109375,0)" xlink:href="#bG"/><use transform="matrix(0.013020833333333332,0,0,0.013020833333333332,48.1640625,0)" xlink:href="#bH"/><use transform="matrix(0.013020833333333332,0,0,0.013020833333333332,64.21875,0)" xlink:href="#ba"/><use transform="matrix(0.013020833333333332,0,0,0.013020833333333332,80.2734375,0)" xlink:href="#bI"/></g><use transform="matrix(0.026666666666666665,0,0,0.026666666666666665,0,0)" xlink:href="#aN" id="U"/><path fill="#333" d="M86-1493h270l258 760 260-760h271V0H958v-1319L692-532H539l-267-787V0H86v-1493" id="bJ"/><path fill="#333" d="M651-1147c298 0 466 229 461 541v90H315c-4 242 129 392 365 389 156-2 268-51 389-113v183C949-8 828 27 678 29c-351 3-555-232-555-588 0-338 200-588 528-588zm277 487c-4-201-91-331-285-331-193 0-305 144-321 332" id="bK"/><path fill="#333" d="M1233 403v80H0v-80h1233" id="bL"/><g id="V"><use transform="matrix(0.01777777777777777,0,0,0.01777777777777777,0,0)" xlink:href="#aS"/><use transform="matrix(0.008680555555555552,0,0,0.008680555555555552,17.493333333333325,0)" xlink:href="#bE"/><use transform="matrix(0.008680555555555552,0,0,0.008680555555555552,28.19645833333332,0)" xlink:href="#bF"/><use transform="matrix(0.008680555555555552,0,0,0.008680555555555552,38.89958333333332,0)" xlink:href="#bJ"/><use transform="matrix(0.008680555555555552,0,0,0.008680555555555552,49.60270833333331,0)" xlink:href="#bK"/><use transform="matrix(0.008680555555555552,0,0,0.008680555555555552,60.30583333333331,0)" xlink:href="#aX"/><use transform="matrix(0.008680555555555552,0,0,0.008680555555555552,71.00895833333331,0)" xlink:href="#bL"/></g><use transform="matrix(0.01777777777777777,0,0,0.01777777777777777,0,0)" xlink:href="#bf" id="W"/><path fill="#333" d="M881-790v754C888 85 776 83 665 90l-25-77c71-10 164 16 164-78v-728zM209-373c42 31 87 71 124 107l-43 68c-26-35-81-84-116-112-27 43-54 82-85 121l-52-50c95-116 168-266 209-435H84v-72h479v72H322c-12 49-26 96-43 142h236v68C457-189 312-22 113 117L64 55C249-70 384-212 439-462H251c-13 31-27 61-42 89zm476 248h-74v-577l74 3v574" id="bM"/><path fill="#333" d="M616-1315L403-551h426zm-122-178h245L1196 0H987L877-389H354L246 0H37" id="bN"/><path fill="#333" d="M201-1493h829v170H717v1153h313V0H201v-170h313v-1153H201v-170" id="bO"/><g id="X"><use transform="matrix(0.01777777777777777,0,0,0.01777777777777777,0,0)" xlink:href="#bM"/><use transform="matrix(0.008680555555555552,0,0,0.008680555555555552,17.493333333333325,0)" xlink:href="#bN"/><use transform="matrix(0.008680555555555552,0,0,0.008680555555555552,28.19645833333332,0)" xlink:href="#bE"/><use transform="matrix(0.008680555555555552,0,0,0.008680555555555552,38.89958333333332,0)" xlink:href="#bO"/><use transform="matrix(0.01777777777777777,0,0,0.01777777777777777,49.60270833333331,0)" xlink:href="#bc"/></g><path fill="#333" d="M942-531H815v485C826 84 719 91 599 95l-25-79c74-9 163 18 163-85v-462H455v-74h282v-195l78 3v192h127v74zM251-280c-52-77-115-166-169-230l57-42c48 56 100 129 148 195 35-81 60-166 75-264H74v-73h361v74c-21 127-53 230-100 332 52 72 106 156 148 228L420-4c-35-66-80-140-124-207C240-110 175-22 98 67L38 19c85-96 154-187 213-299zm267-179c54 67 108 155 151 232l-61 48c-39-84-94-173-146-243" id="bP"/><use transform="matrix(0.026666666666666665,0,0,0.026666666666666665,0,0)" xlink:href="#bP" id="Y"/><path fill="#333" d="M838-316c-40 26-93 56-141 79C748-128 837-65 942-8l-51 63C784-15 696-92 639-210c-19 8-38 15-56 22 18 77 26 194-24 239-40 36-121 37-196 42l-22-69c55-4 132-3 162-27 23-19 30-76 24-124C399-35 234 28 67 82L38 22c179-44 351-122 475-210-7-20-14-35-24-53C379-163 253-110 99-62l-27-59c149-44 277-95 386-165-12-16-26-32-42-48-88 66-197 100-330 138l-23-63c122-32 232-60 314-127H155v-159c-20 14-42 25-64 37l-29-63c123-66 220-140 298-246l64 30c-15 18-28 36-43 54h347v53c-31 31-63 60-95 86h211v208H468c-3 4-5 7-7 9 45 43 78 86 99 131 84-36 173-81 244-130zM330-679c-31 31-64 59-101 85h308c33-26 63-55 93-85H330zM225-441h201c18-27 33-65 46-98H225v98zm550-98H543c-12 34-27 67-42 98h274v-98" id="bQ"/><use transform="matrix(0.026666666666666665,0,0,0.026666666666666665,0,0)" xlink:href="#bQ" id="Z"/><use transform="matrix(0.01777777777777777,0,0,0.01777777777777777,0,0)" xlink:href="#bP" id="aa"/><use transform="matrix(0.01777777777777777,0,0,0.01777777777777777,0,0)" xlink:href="#bQ" id="ab"/><path fill="#333" d="M320-807c12 36 26 86 36 124h172v68h-66c-10 48-27 128-39 176h131v68H44v-68h143c-8-59-19-121-31-176H79v-68h201c-9-35-19-79-31-110zm588 135c-19 86-51 177-84 252 59 71 116 171 94 310-12 75-87 79-163 88l-28-71c60-9 131 2 126-72-3-112-58-181-107-246 35-81 72-167 92-261H671v776h-72v-844h309v68zm-686 57c10 55 22 118 30 176h104c13-56 28-116 38-176H222zm-98 329h362V56H124v-342zm71 275h220v-210H195v210" id="bR"/><path fill="#333" d="M850-236c87-126 87-521 0-646-49-70-112-109-201-109s-154 38-203 109c-89 127-89 518 0 645 49 71 114 110 203 110s152-39 201-109zM676 29c-146 0-244-69-299-170V0H193v-1556h184v579c53-101 154-170 301-170 297 0 434 260 434 584 0 329-136 592-436 592" id="bS"/><path fill="#333" d="M535 29c-255 0-340-177-340-453v-694h184v694c1 183 52 293 219 293 191 0 268-148 268-354v-633h185V0H866v-168C807-50 701 29 535 29" id="bT"/><path fill="#333" d="M494-1120c-16-286 77-439 348-436h221v153H854c-136 2-174 46-176 184v99h385v143H678V0H494v-977H195v-143h299" id="bU"/><path fill="#333" d="M915-1147c102 0 174 26 240 70v188c-71-55-140-88-254-88-243 0-354 165-354 420V0H362v-1120h185v219c55-146 178-246 368-246" id="bV"/><g id="ac"><use transform="matrix(0.01777777777777777,0,0,0.01777777777777777,0,0)" xlink:href="#bR"/><use transform="matrix(0.008680555555555552,0,0,0.008680555555555552,17.493333333333325,0)" xlink:href="#bS"/><use transform="matrix(0.008680555555555552,0,0,0.008680555555555552,28.19645833333332,0)" xlink:href="#bT"/><use transform="matrix(0.008680555555555552,0,0,0.008680555555555552,38.89958333333332,0)" xlink:href="#bU"/><use transform="matrix(0.008680555555555552,0,0,0.008680555555555552,49.60270833333331,0)" xlink:href="#bU"/><use transform="matrix(0.008680555555555552,0,0,0.008680555555555552,60.30583333333331,0)" xlink:href="#bK"/><use transform="matrix(0.008680555555555552,0,0,0.008680555555555552,71.00895833333331,0)" xlink:href="#bV"/><use transform="matrix(0.01777777777777777,0,0,0.01777777777777777,81.71208333333331,0)" xlink:href="#bc"/></g><path fill="#333" d="M931-485v66H360v-66h240v-122H412v-68h188v-126l72 2v124h209v68H672v122h259zM160-713c0 41-4 83-10 123h69v-206l70 2v204h109v70H289v191c28-12 53-24 78-36 7 24 13 47 18 73-29 14-63 29-96 42V95h-70v-317c-56 21-122 46-174 64l-22-75c58-18 136-45 196-68v-219h-80c-9 58-22 123-36 171l-67-25c27-100 52-224 56-346zm631 405h120v67H791c-2 86 7 183-5 261-11 69-103 61-180 71l-23-70c63-10 136 11 136-82v-180H411v-67h308v-81l72 2v79zM556-17c-37-55-87-112-133-156l49-46c45 42 97 94 135 144" id="bW"/><use transform="matrix(0.026666666666666665,0,0,0.026666666666666665,0,0)" xlink:href="#bW" id="ad"/><path fill="#333" d="M512-815c11 30 27 79 36 113h335v175h-73v-107H180v108h-74v-176h366c-9-31-20-70-31-96zM304-335c-7 65-16 121-33 174C317-84 376-40 472-18v-406H132v-67h726v67H547v162h294v69H547V-9c133 4 262 0 392-5l-21 74c-183 2-406 30-545-32-51-24-95-62-131-113-34 75-79 130-134 190L42 56c103-98 172-208 183-396" id="bX"/><use transform="matrix(0.026666666666666665,0,0,0.026666666666666665,0,0)" xlink:href="#bX" id="ae"/><use transform="matrix(0.026666666666666665,0,0,0.026666666666666665,0,0)" xlink:href="#bP" id="af"/><g id="ag"><use transform="matrix(0.01777777777777777,0,0,0.01777777777777777,0,0)" xlink:href="#aS"/><use transform="matrix(0.008680555555555552,0,0,0.008680555555555552,17.493333333333325,0)" xlink:href="#bU"/><use transform="matrix(0.008680555555555552,0,0,0.008680555555555552,28.19645833333332,0)" xlink:href="#aZ"/><use transform="matrix(0.008680555555555552,0,0,0.008680555555555552,38.89958333333332,0)" xlink:href="#ba"/><use transform="matrix(0.008680555555555552,0,0,0.008680555555555552,49.60270833333331,0)" xlink:href="#aY"/><use transform="matrix(0.008680555555555552,0,0,0.008680555555555552,60.30583333333331,0)" xlink:href="#bG"/></g><path fill="#333" d="M506-814c13 30 33 87 43 121h325v199h-74v-130H183v129h-74v-198h359c-10-34-27-79-39-108zm371 512c-92-71-212-138-325-187l32-64c112 50 230 118 327 183zM69-361c113-50 232-120 324-191l38 63c-96 69-215 140-328 192zM532-16h378v70H74v-70h378v-211H180v-70h624v70H532v211" id="bY"/><use transform="matrix(0.01777777777777777,0,0,0.01777777777777777,0,0)" xlink:href="#bY" id="ah"/><path fill="#333" d="M178-803c55 42 112 99 157 151l-52 64c-41-60-99-119-154-165zm697 60v715C888 94 782 90 673 96l-26-75c66-11 156 20 156-74v-619H359v-71h516zM108-628l71 2V90h-71v-718zm457 265c67 61 142 134 199 205l-49 66c-52-75-122-152-189-212V41h-70v-336C395-193 330-125 241-48l-46-64c107-86 194-182 256-311H243v-69h213v-133l70 2v131h214v69H526v100" id="bZ"/><use transform="matrix(0.01777777777777777,0,0,0.01777777777777777,0,0)" xlink:href="#bZ" id="ai"/><path fill="#333" d="M215-457c-49 6-104 4-150 12l-14-70c35-13 39-39 62-72 37-64 74-140 102-213l62 25c-39 89-83 180-134 255 36-1 75-4 111-5 20-37 42-75 59-112l56 28c-54 113-123 232-191 329 50-6 113-16 160-24l4 71c-84 11-185 21-258 42l-16-78c54-15 56-53 91-97 18-28 37-59 56-91zM713-50c68 38 143 61 236 80l-25 69C821 71 736 40 659-10c-73 48-161 86-264 114l-31-66c92-21 172-49 241-89-48-42-86-92-118-151C441-87 382 2 302 89l-50-51c33-33 62-68 88-103C252-39 146-13 50 4L36-69c100-17 211-44 301-71 3 22 7 43 10 65 53-77 93-165 118-264H330v-60h149c6-27 9-55 13-84H363v-60h86c-14-38-32-78-52-110l44-21c-30 2-57 3-80 3l-13-63c184-4 381-25 545-50l10 64c-78 14-185 25-275 33 19 37 40 83 53 126l-37 18h89c25-45 53-97 71-148l60 13c-17 47-41 94-64 135h104v60H558c-4 29-7 57-14 84h385v60H531c-6 25-13 49-20 72h336v62c-36 62-79 111-134 155zm-89-493c-13-42-32-86-49-124l51-20c-58 5-118 10-176 13 19 35 41 75 56 113l-30 18h148zm-73 336c30 49 66 90 108 122 46-34 84-75 114-122H551" id="ca"/><use transform="matrix(0.01777777777777777,0,0,0.01777777777777777,0,0)" xlink:href="#ca" id="aj"/><g id="ak"><use transform="matrix(0.01777777777777777,0,0,0.01777777777777777,0,0)" xlink:href="#aO"/><use transform="matrix(0.01777777777777777,0,0,0.01777777777777777,17.493333333333325,0)" xlink:href="#bc"/></g><g id="al"><use transform="matrix(0.010850694444444444,0,0,0.010850694444444444,0,0)" xlink:href="#bE"/><use transform="matrix(0.010850694444444444,0,0,0.010850694444444444,13.37890625,0)" xlink:href="#bF"/><use transform="matrix(0.010850694444444444,0,0,0.010850694444444444,26.7578125,0)" xlink:href="#bG"/><use transform="matrix(0.010850694444444444,0,0,0.010850694444444444,40.13671875,0)" xlink:href="#bH"/><use transform="matrix(0.010850694444444444,0,0,0.010850694444444444,53.515625,0)" xlink:href="#ba"/><use transform="matrix(0.010850694444444444,0,0,0.010850694444444444,66.89453125,0)" xlink:href="#bI"/></g><path fill="#333" d="M59-500c117-83 217-191 290-316l71 25c-12 21-25 42-38 62h353v68c-37 49-76 95-119 138h186v399h-76v-329H257v330h-77v-378c-22 19-44 36-65 53zm273-161c-37 48-80 94-128 138h317c43-43 82-89 120-138H332zm198 267c-1 83 6 168-18 230C477-74 406-24 310 22c-58 27-132 54-223 81L51 32C192-6 294-40 381-106c75-57 70-165 69-293zm338 509C763 34 628-33 499-89l35-62C662-100 796-35 905 36" id="cb"/><use transform="matrix(0.022222222222222223,0,0,0.022222222222222223,0,0)" xlink:href="#cb" id="am"/><path fill="#333" d="M931-464v59H57v-59h397v-70H147v-59h307v-65H107v-59h347v-82l79 3v79h346v59H533v65h306v59H533v70h398zM725-69v-197H264v199h-75v-262h612v260h-76zM541-231C510-128 475-40 390 8c-81 48-171 70-288 97L73 35C274-4 434-42 467-241zm337 338C762 51 618-5 491-50l27-59C644-68 783-16 901 33" id="cc"/><use transform="matrix(0.022222222222222223,0,0,0.022222222222222223,0,0)" xlink:href="#cc" id="an"/><use transform="matrix(0.022222222222222223,0,0,0.022222222222222223,0,0)" xlink:href="#bd" id="ao"/><use transform="matrix(0.022222222222222223,0,0,0.022222222222222223,0,0)" xlink:href="#be" id="ap"/><use transform="matrix(0.022222222222222223,0,0,0.022222222222222223,0,0)" xlink:href="#bf" id="aq"/><use transform="matrix(0.022222222222222223,0,0,0.022222222222222223,0,0)" xlink:href="#bg" id="ar"/><use transform="matrix(0.022222222222222223,0,0,0.022222222222222223,0,0)" xlink:href="#cb" id="as"/><use transform="matrix(0.022222222222222223,0,0,0.022222222222222223,0,0)" xlink:href="#aU" id="at"/><use transform="matrix(0.022222222222222223,0,0,0.022222222222222223,0,0)" xlink:href="#aV" id="au"/><use transform="matrix(0.022222222222222223,0,0,0.022222222222222223,0,0)" xlink:href="#aW" id="av"/><path fill="#333" d="M270-170h314v-1141l-338 76v-184l336-74h202v1323h310V0H270v-170" id="cd"/><g id="aw"><use transform="matrix(0.010850694444444444,0,0,0.010850694444444444,0,0)" xlink:href="#aH"/><use transform="matrix(0.010850694444444444,0,0,0.010850694444444444,13.37890625,0)" xlink:href="#cd"/></g><use transform="matrix(0.010850694444444444,0,0,0.010850694444444444,0,0)" xlink:href="#cd" id="ax"/><use transform="matrix(0.010850694444444444,0,0,0.010850694444444444,0,0)" xlink:href="#aI" id="ay"/><path fill="#333" d="M1044-1120c-1 183-111 281-268 321 181 46 302 172 303 387 1 289-218 445-522 441-155-2-297-31-420-74v-201c118 61 239 103 398 105 208 2 343-93 344-291 1-181-141-287-330-283H395v-166h154c169 2 295-74 295-231 0-161-111-239-279-238-146 2-264 35-383 80v-186c132-34 244-61 383-64 268-6 481 146 479 400" id="ce"/><use transform="matrix(0.010850694444444444,0,0,0.010850694444444444,0,0)" xlink:href="#ce" id="az"/><path fill="#333" d="M614-616c-74 0-131-59-131-134 0-70 61-135 131-135 72 0 136 64 136 135 0 73-63 134-136 134zm2-744c-94 0-159 53-210 152-88 171-88 754 0 925 51 99 116 152 210 152 95 0 161-53 212-152 88-172 88-754 0-925-51-99-117-152-212-152zm0-160c159 0 280 65 362 196s122 324 122 579-40 447-122 578S775 29 616 29 336-36 255-167 133-490 133-745s41-448 122-579 202-196 361-196" id="cf"/><use transform="matrix(0.010850694444444444,0,0,0.010850694444444444,0,0)" xlink:href="#cf" id="aA"/><path fill="#999" d="M134-266C134-56 246 41 462 40c74 0 147-11 219-33v67c-76 24-152 36-227 36C201 107 56-16 56-265c0-211 110-342 262-407 52-21 107-31 166-31 256-11 395 180 332 438-22 90-69 166-173 172-46 0-80-20-102-61-37 40-76 62-148 63-92 1-142-58-142-149 5-149 68-252 208-260 52-3 87 20 106 54l9-49h73c-15 87-40 183-50 273-5 54 56 83 94 48 45-39 62-116 62-202 2-172-101-258-270-258-220 0-349 144-349 368zm195 27c0 51 25 80 77 80 96-3 127-86 134-182 2-61-20-99-82-94-95 7-124 96-129 196" id="cg"/><use transform="matrix(0.03133333333333328,0,0,0.03133333333333328,0,0)" xlink:href="#cg" id="aB"/><path fill="#999" d="M533-30C544 88 432 80 329 89L299 8c47-6 113 1 143-22 9-11 10-27 10-48v-728l81 3v757zm346-31c-74-182-160-356-243-509l68-33c86 157 173 326 245 501zM26-99c90-137 166-318 216-494l77 23C269-390 191-206 102-64" id="ch"/><use transform="matrix(0.03133333333333328,0,0,0.03133333333333328,0,0)" xlink:href="#ch" id="aC"/><path fill="#999" d="M308-659H73v-63h235v-83l75 2v81h216v-83l76 2v81h235v63H675v60h-76v-60H383v70h-75v-70zm249 460C662-114 793-50 948-5l-34 68C751 9 633-58 527-154v256h-76v-252C353-52 230 11 80 63L43-9c151-42 275-103 378-190H86v-66h365v-58l62 2c-25-50-60-102-94-143l41-28c-77 5-156 8-232 11 36 38 78 89 108 139l-59 53c-30-59-73-111-112-155l53-37c-35 2-68 3-97 3l-10-69c245-2 506-19 730-42l6 64c-108 12-241 23-360 31 30 39 63 84 89 127l-57 47h8v55h370v66H557zm72-126c48-48 96-115 129-176l60 37c-35 64-84 131-131 182" id="ci"/><use transform="matrix(0.03133333333333328,0,0,0.03133333333333328,0,0)" xlink:href="#ci" id="aD"/><path fill="#999" d="M639-626c36-52 69-114 96-174l73 29c-22 41-58 105-83 145h166v193h-75v-122H168v122H93v-193h158c-20-45-45-94-74-131l69-29c27 41 58 94 80 140l-42 20h193c-17-54-43-110-67-157l70-23c25 46 51 111 71 163l-47 17h135zm285 470H547c-6 94 28 220-71 232-38 8-98 10-144 13l-22-72c48-6 110-1 144-19 26-28 9-104 14-154H60v-73h408v-48l167-105H222v-72h540v69L547-247v18h377v73" id="cj"/><use transform="matrix(0.03133333333333328,0,0,0.03133333333333328,0,0)" xlink:href="#cj" id="aE"/><path fill="#999" d="M438-480c0 31-1 61-2 91h453c-2 142 9 294-4 429-4 44-49 51-96 56l-22-66c36-6 62 1 62-50v-109h-76V48h-57v-177h-76V48h-56v-177h-71V94h-61v-422C419-168 384-27 317 76l-65-34c24-32 43-65 59-103C234-40 141-17 56-3L38-75c91-12 186-36 268-58 2 24 4 47 6 70 70-160 58-407 59-642h224c-8-31-20-66-30-94l66-15c12 31 25 74 35 109h206v225H438zm-222 26c-52 2-105 3-149 13l-15-68c50-26 68-90 96-141 23-43 45-97 62-143l64 27c-37 88-83 180-132 254 32-4 73-5 108-6 18-34 37-70 52-105l55 29c-48 108-109 217-168 313 45-8 99-18 143-27l2 72c-76 13-170 22-239 41l-16-75c50-15 51-49 84-92 17-27 34-58 53-92zm222-189v100h368v-100H438zm126 454v-139h-71v139h71zm132 0v-139h-76v139h76zm133 0v-139h-76v139h76" id="ck"/><use transform="matrix(0.03133333333333328,0,0,0.03133333333333328,0,0)" xlink:href="#ck" id="aF"/><path fill="#999" d="M294-372c39 42 82 94 114 143l-49 54c-26-46-60-92-93-132v414h-64v-417c-31 82-69 159-113 227l-60-41c69-96 126-209 167-331H69v-71h133v-132c-39 8-83 14-123 17l-14-69c110-9 224-35 316-63l14 68c-38 12-85 25-129 34v145h124v71H266v107zm561-109H430v-266h425v266zm-71-201H498v137h286v-137zM930-16v72H347v-72h259v-117H424v-69h182v-118H399v-69h500v69H677v118h190v69H677v117h253" id="cl"/><use transform="matrix(0.03133333333333328,0,0,0.03133333333333328,0,0)" xlink:href="#cl" id="aG"/></defs></g></svg>